<svg xmlns="http://www.w3.org/2000/svg" width="378.21" height="64.451" viewBox="0 0 378.21 64.451">
  <g id="Group_11" data-name="Group 11" transform="translate(0 -204)">
    <path id="Path_12" data-name="Path 12" d="M3686,74.4h378.21l-28.434,64.451H3686Z" transform="translate(-3686 129.597)" fill="#fff"/>
    <g id="Group_8" data-name="Group 8" transform="translate(-913.13 42.661)">
      <text id="PrimaSolv" transform="translate(1037.416 202.339)" fill="#fe5722" font-size="35" font-family="Akaju"><tspan x="0" y="0">PrimaSolv</tspan></text>
      <g id="Group_4" data-name="Group 4" transform="translate(988.13 168.468)">
        <circle id="Ellipse_15" data-name="Ellipse 15" cx="22.9" cy="22.9" r="22.9" fill="#1a237e"/>
        <path id="Path_6" data-name="Path 6" d="M751.424,188.438a9.314,9.314,0,0,1-.757,3.75,9.547,9.547,0,0,1-2.061,3.029,9.372,9.372,0,0,1-3.064,2.008,9.738,9.738,0,0,1-3.732.722h-4.649v9.191H731.7V186.656h5.459v7.1h3.628a4.81,4.81,0,0,0,2.042-.44,5.4,5.4,0,0,0,1.656-1.18,5.581,5.581,0,0,0,1.108-1.708,5.291,5.291,0,0,0,.406-2.061,5.2,5.2,0,0,0-1.514-3.7,5.445,5.445,0,0,0-1.656-1.126,4.962,4.962,0,0,0-2.042-.423H731.7V179H741.81a9.738,9.738,0,0,1,3.732.722,9.526,9.526,0,0,1,3.064,1.989,9.421,9.421,0,0,1,2.061,2.994,9.2,9.2,0,0,1,.757,3.733" transform="translate(-717.172 -169.595)" fill="#fff"/>
      </g>
      <path id="Path_9" data-name="Path 9" d="M5.368-15.238a2.061,2.061,0,0,1,.729.282,1.772,1.772,0,0,1,.5.515,1.6,1.6,0,0,1,.228.9,2.091,2.091,0,0,1-.141.787,1.448,1.448,0,0,1-.452.6,2.171,2.171,0,0,1-.8.379,4.622,4.622,0,0,1-1.181.131H2.21v-6.8H4.251a3.642,3.642,0,0,1,1.04.131,2.081,2.081,0,0,1,.724.364,1.471,1.471,0,0,1,.428.554,1.72,1.72,0,0,1,.141.7,1.338,1.338,0,0,1-.194.763,1.67,1.67,0,0,1-.418.442A1.8,1.8,0,0,1,5.368-15.238Zm-1.8-.389h.68a.952.952,0,0,0,.7-.267.952.952,0,0,0,.267-.7.952.952,0,0,0-.267-.7.952.952,0,0,0-.7-.267H3.57Zm0,.875v2.235h.68q1.215,0,1.215-1.117T4.251-14.752Zm6.462-.875a.665.665,0,0,0-.355.092,1.387,1.387,0,0,0-.258.2,1.694,1.694,0,0,0-.214.292v3.4H7.846V-16.5h.972l.1.583h.049a1.816,1.816,0,0,1,.33-.34,1.992,1.992,0,0,1,.408-.233,1.415,1.415,0,0,1,.573-.107,2.331,2.331,0,0,1,.258.015q.131.015.238.034T11-16.5l-.194.972h-.1q-.107-.019-.214-.049t-.219-.034A2.078,2.078,0,0,0,10.032-15.626Zm4.13.875a1.036,1.036,0,0,0-.223-.743.942.942,0,0,0-.7-.228,1.422,1.422,0,0,0-.428.058,1.646,1.646,0,0,0-.321.136,1.459,1.459,0,0,0-.272.194h-.1l-.437-.777a2.76,2.76,0,0,1,.457-.243,4.624,4.624,0,0,1,.525-.165,2.684,2.684,0,0,1,.67-.078,2.946,2.946,0,0,1,.933.136,1.925,1.925,0,0,1,.685.384,1.654,1.654,0,0,1,.423.588,1.855,1.855,0,0,1,.146.739v3.11h-.972l-.1-.583h-.049a1.828,1.828,0,0,1-.33.34,1.632,1.632,0,0,1-.408.238,1.474,1.474,0,0,1-.573.1,1.912,1.912,0,0,1-1.336-.423,1.4,1.4,0,0,1-.462-1.083,1.616,1.616,0,0,1,.121-.636,1.2,1.2,0,0,1,.389-.491,1.949,1.949,0,0,1,.68-.316,3.856,3.856,0,0,1,1-.112h.68Zm0,1.02h-.68a.932.932,0,0,0-.632.175.645.645,0,0,0-.194.505.55.55,0,0,0,.175.418.709.709,0,0,0,.505.165.629.629,0,0,0,.335-.092,1.387,1.387,0,0,0,.258-.2,1.77,1.77,0,0,0,.233-.292Zm4.762-1.943a.665.665,0,0,0-.355.092,1.387,1.387,0,0,0-.258.2,1.694,1.694,0,0,0-.214.292v3.45h-1.36V-16.5h.972l.1.583h.049a1.816,1.816,0,0,1,.33-.34,1.992,1.992,0,0,1,.408-.233,1.415,1.415,0,0,1,.573-.107,1.847,1.847,0,0,1,1.365.481,1.847,1.847,0,0,1,.481,1.365v3.11h-1.36v-3.11a1.031,1.031,0,0,0-.2-.7A.675.675,0,0,0,18.924-15.675Zm6.025.243a2.322,2.322,0,0,0-.2-.146,2.306,2.306,0,0,0-.228-.1.849.849,0,0,0-.3-.049.814.814,0,0,0-.369.083.77.77,0,0,0-.292.272,1.47,1.47,0,0,0-.194.505,3.851,3.851,0,0,0-.068.792,3.593,3.593,0,0,0,.068.763,1.715,1.715,0,0,0,.18.5.671.671,0,0,0,.262.267.68.68,0,0,0,.316.078.672.672,0,0,0,.35-.092,1.326,1.326,0,0,0,.262-.2,1.694,1.694,0,0,0,.214-.292Zm1.36,3.79h-.972l-.1-.583h-.049a1.828,1.828,0,0,1-.33.34,1.632,1.632,0,0,1-.408.238,1.474,1.474,0,0,1-.573.1,1.9,1.9,0,0,1-.773-.155,1.666,1.666,0,0,1-.617-.471,2.262,2.262,0,0,1-.408-.787,3.783,3.783,0,0,1-.146-1.113,3.783,3.783,0,0,1,.146-1.113,2.171,2.171,0,0,1,.418-.787,1.71,1.71,0,0,1,.646-.471,2.145,2.145,0,0,1,.831-.155,1.437,1.437,0,0,1,.394.049q.17.049.306.1a2.686,2.686,0,0,1,.272.146v-1.749l.389-.389h.972Zm6.073-6.9a1.94,1.94,0,0,1,.554.078,4.27,4.27,0,0,1,.466.165,3.161,3.161,0,0,1,.437.243l-.437.777h-.1a1.867,1.867,0,0,0-.253-.194,1.426,1.426,0,0,0-.262-.136.829.829,0,0,0-.311-.058.586.586,0,0,0-.442.2.811.811,0,0,0-.189.573v.389h1.215v.875H31.848v3.984h-1.36v-3.984h-.534V-16.5h.534v-.389a1.561,1.561,0,0,1,.491-1.19A1.973,1.973,0,0,1,32.382-18.541Zm4.373,4.47a3.851,3.851,0,0,0-.068-.792,1.623,1.623,0,0,0-.185-.505.716.716,0,0,0-.277-.272.742.742,0,0,0-.345-.083.742.742,0,0,0-.345.083.716.716,0,0,0-.277.272,1.623,1.623,0,0,0-.185.505,3.851,3.851,0,0,0-.068.792,3.851,3.851,0,0,0,.068.792,1.623,1.623,0,0,0,.185.505.716.716,0,0,0,.277.272.742.742,0,0,0,.345.083.742.742,0,0,0,.345-.083.716.716,0,0,0,.277-.272,1.623,1.623,0,0,0,.185-.505A3.851,3.851,0,0,0,36.755-14.071Zm1.36,0a2.688,2.688,0,0,1-.588,1.9,2.157,2.157,0,0,1-1.647.622,2.157,2.157,0,0,1-1.647-.622,2.688,2.688,0,0,1-.588-1.9,2.688,2.688,0,0,1,.588-1.9,2.157,2.157,0,0,1,1.647-.622,2.157,2.157,0,0,1,1.647.622A2.688,2.688,0,0,1,38.116-14.071Zm3.352-1.555a.665.665,0,0,0-.355.092,1.387,1.387,0,0,0-.258.2,1.694,1.694,0,0,0-.214.292v3.4h-1.36V-16.5h.972l.1.583H40.4a1.816,1.816,0,0,1,.33-.34,1.992,1.992,0,0,1,.408-.233,1.415,1.415,0,0,1,.573-.107,2.331,2.331,0,0,1,.258.015q.131.015.238.034t.233.049l-.194.972h-.1q-.107-.019-.214-.049t-.219-.034A2.078,2.078,0,0,0,41.468-15.626Zm5.49,3.984V-17.57h-1.7v-.875h4.762v.875h-1.7v5.928ZM52.5-15.626a.665.665,0,0,0-.355.092,1.387,1.387,0,0,0-.258.2,1.694,1.694,0,0,0-.214.292v3.4h-1.36V-16.5h.972l.1.583h.049a1.816,1.816,0,0,1,.33-.34,1.992,1.992,0,0,1,.408-.233,1.415,1.415,0,0,1,.573-.107,2.331,2.331,0,0,1,.258.015q.131.015.238.034t.233.049l-.194.972h-.1q-.107-.019-.214-.049t-.219-.034A2.078,2.078,0,0,0,52.5-15.626Zm3.644,3.158a.672.672,0,0,0,.35-.092,1.326,1.326,0,0,0,.262-.2,1.694,1.694,0,0,0,.214-.292V-16.5h1.36v4.859h-.972l-.1-.583H57.21a1.829,1.829,0,0,1-.33.34,1.632,1.632,0,0,1-.408.238,1.474,1.474,0,0,1-.573.1,1.847,1.847,0,0,1-1.365-.481,1.847,1.847,0,0,1-.481-1.365V-16.5h1.36v3.11a1.031,1.031,0,0,0,.2.7A.675.675,0,0,0,56.141-12.468Zm5.2-4.13a3.231,3.231,0,0,1,.739.078,5.994,5.994,0,0,1,.583.165,3.284,3.284,0,0,1,.525.243l-.437.777h-.1a2.017,2.017,0,0,0-.33-.194,2.251,2.251,0,0,0-.389-.136,1.963,1.963,0,0,0-.5-.058.937.937,0,0,0-.593.151.431.431,0,0,0-.185.335.379.379,0,0,0,.2.33,2.538,2.538,0,0,0,.5.233q.3.107.641.214a3.009,3.009,0,0,1,.641.282,1.668,1.668,0,0,1,.5.442,1.1,1.1,0,0,1,.2.675,1.5,1.5,0,0,1-.121.607,1.236,1.236,0,0,1-.384.481,1.9,1.9,0,0,1-.666.316,3.656,3.656,0,0,1-.967.112,4.17,4.17,0,0,1-.807-.073,4.158,4.158,0,0,1-.632-.17,3.387,3.387,0,0,1-.554-.243l.437-.777h.1a2.235,2.235,0,0,0,.35.194,2.143,2.143,0,0,0,.408.136,2.383,2.383,0,0,0,.554.058,1.2,1.2,0,0,0,.719-.16.476.476,0,0,0,.2-.384.379.379,0,0,0-.2-.33,2.538,2.538,0,0,0-.5-.233q-.3-.107-.641-.214a3.009,3.009,0,0,1-.641-.282,1.7,1.7,0,0,1-.5-.437,1.094,1.094,0,0,1-.2-.68,1.381,1.381,0,0,1,.121-.578,1.229,1.229,0,0,1,.369-.462,1.85,1.85,0,0,1,.636-.306A3.324,3.324,0,0,1,61.34-16.6Zm4.907,4.178a.829.829,0,0,0,.311-.058,1.427,1.427,0,0,0,.262-.136,1.868,1.868,0,0,0,.253-.194h.1l.437.777a3.161,3.161,0,0,1-.437.243,2.879,2.879,0,0,1-.466.17,2.061,2.061,0,0,1-.554.073,2.2,2.2,0,0,1-.753-.121,1.632,1.632,0,0,1-.568-.34,1.443,1.443,0,0,1-.355-.52,1.778,1.778,0,0,1-.121-.67v-2.429h-.632v-.583l1.458-1.458h.534V-16.5H66.83v.875H65.713V-13.2a.915.915,0,0,0,.155.593A.478.478,0,0,0,66.247-12.419Zm3.936-3.3a.692.692,0,0,0-.534.3,1.434,1.434,0,0,0-.243.918H70.96a1.434,1.434,0,0,0-.243-.918A.692.692,0,0,0,70.183-15.723Zm.292,4.178q-2.429,0-2.429-2.527a2.721,2.721,0,0,1,.578-1.9,2.018,2.018,0,0,1,1.56-.627,2.043,2.043,0,0,1,1.56.612,2.556,2.556,0,0,1,.578,1.817v.243l-.292.292H69.405q0,1.215,1.166,1.215a1.434,1.434,0,0,0,.423-.058,1.614,1.614,0,0,0,.326-.136,1.458,1.458,0,0,0,.272-.194h.1l.437.777a3.16,3.16,0,0,1-.466.243,3.266,3.266,0,0,1-.52.17A2.793,2.793,0,0,1,70.474-11.545Zm5.685-3.887a2.322,2.322,0,0,0-.2-.146,2.306,2.306,0,0,0-.228-.1.849.849,0,0,0-.3-.049.814.814,0,0,0-.369.083.77.77,0,0,0-.292.272,1.47,1.47,0,0,0-.194.505,3.85,3.85,0,0,0-.068.792,3.592,3.592,0,0,0,.068.763,1.715,1.715,0,0,0,.18.5.671.671,0,0,0,.262.267.68.68,0,0,0,.316.078.672.672,0,0,0,.35-.092,1.326,1.326,0,0,0,.262-.2,1.694,1.694,0,0,0,.214-.292Zm1.36,3.79h-.972l-.1-.583H76.4a1.828,1.828,0,0,1-.33.34,1.632,1.632,0,0,1-.408.238,1.474,1.474,0,0,1-.573.1,1.9,1.9,0,0,1-.773-.155,1.666,1.666,0,0,1-.617-.471,2.262,2.262,0,0,1-.408-.787,3.783,3.783,0,0,1-.146-1.113,3.783,3.783,0,0,1,.146-1.113,2.172,2.172,0,0,1,.418-.787,1.71,1.71,0,0,1,.646-.471,2.145,2.145,0,0,1,.831-.155,1.437,1.437,0,0,1,.394.049q.17.049.306.1a2.687,2.687,0,0,1,.272.146v-1.749l.389-.389h.972Zm6.122-6.9a4,4,0,0,1,.865.083,3.677,3.677,0,0,1,.622.189,2.628,2.628,0,0,1,.505.262l-.437.777h-.1a1.615,1.615,0,0,0-.33-.214,2.765,2.765,0,0,0-.428-.151,2.257,2.257,0,0,0-.6-.073,1.1,1.1,0,0,0-.408.073,1.011,1.011,0,0,0-.321.2.984.984,0,0,0-.214.282.709.709,0,0,0-.078.321.756.756,0,0,0,.228.564,2.466,2.466,0,0,0,.578.408q.35.185.748.369a4.522,4.522,0,0,1,.748.437,2.187,2.187,0,0,1,.578.617,1.681,1.681,0,0,1,.228.909,1.9,1.9,0,0,1-.155.773,1.71,1.71,0,0,1-.462.617,2.175,2.175,0,0,1-.758.408,3.441,3.441,0,0,1-1.054.146,4.769,4.769,0,0,1-.923-.078,3.645,3.645,0,0,1-.651-.185,2.014,2.014,0,0,1-.515-.272l.437-.777h.1a1.544,1.544,0,0,0,.35.223,2.787,2.787,0,0,0,.447.146,2.763,2.763,0,0,0,.661.068,1.256,1.256,0,0,0,.875-.267.91.91,0,0,0,.292-.7.756.756,0,0,0-.228-.564,2.466,2.466,0,0,0-.578-.408q-.35-.185-.748-.369a4.521,4.521,0,0,1-.748-.437,2.187,2.187,0,0,1-.578-.617,1.681,1.681,0,0,1-.228-.909,1.756,1.756,0,0,1,.151-.719A1.631,1.631,0,0,1,81.951-18a2.186,2.186,0,0,1,.719-.394A3,3,0,0,1,83.641-18.541ZM88.6-15.723a.692.692,0,0,0-.534.3,1.434,1.434,0,0,0-.243.918h1.555a1.434,1.434,0,0,0-.243-.918A.692.692,0,0,0,88.6-15.723Zm.292,4.178q-2.429,0-2.429-2.527a2.721,2.721,0,0,1,.578-1.9A2.018,2.018,0,0,1,88.6-16.6a2.043,2.043,0,0,1,1.56.612,2.556,2.556,0,0,1,.578,1.817v.243l-.292.292H87.82q0,1.215,1.166,1.215a1.434,1.434,0,0,0,.423-.058,1.614,1.614,0,0,0,.326-.136,1.458,1.458,0,0,0,.272-.194h.1l.437.777a3.16,3.16,0,0,1-.466.243,3.266,3.266,0,0,1-.52.17A2.793,2.793,0,0,1,88.889-11.545Zm5.15-4.081a.665.665,0,0,0-.355.092,1.387,1.387,0,0,0-.257.2,1.693,1.693,0,0,0-.214.292v3.4h-1.36V-16.5h.972l.1.583h.049a1.816,1.816,0,0,1,.33-.34,1.992,1.992,0,0,1,.408-.233,1.415,1.415,0,0,1,.573-.107,2.331,2.331,0,0,1,.258.015q.131.015.238.034t.233.049l-.194.972h-.1q-.107-.019-.214-.049t-.219-.034A2.078,2.078,0,0,0,94.039-15.626Zm2.575,3.984-1.6-4.859h1.36l.875,3.012q.019.078.034.17t.024.17l.019.194h.039l.019-.194q.01-.078.024-.17t.034-.17l.875-3.012h1.36l-1.6,4.859Zm5.1-4.859v4.859h-1.36V-16.5Zm-.68-2.089a.7.7,0,0,1,.51.219.7.7,0,0,1,.219.51.7.7,0,0,1-.219.51.7.7,0,0,1-.51.219.7.7,0,0,1-.51-.219.7.7,0,0,1-.219-.51.7.7,0,0,1,.219-.51A.7.7,0,0,1,101.035-18.59Zm4.033,2.867a1.047,1.047,0,0,0-.423.083.756.756,0,0,0-.321.272,1.467,1.467,0,0,0-.2.505,3.6,3.6,0,0,0-.073.792,3.6,3.6,0,0,0,.073.792,1.351,1.351,0,0,0,.214.505.794.794,0,0,0,.35.272,1.3,1.3,0,0,0,.481.083,1.434,1.434,0,0,0,.423-.058,1.613,1.613,0,0,0,.326-.136,1.458,1.458,0,0,0,.272-.194h.1l.437.777a3.16,3.16,0,0,1-.466.243,3.266,3.266,0,0,1-.52.17,2.793,2.793,0,0,1-.666.073,2.366,2.366,0,0,1-1.778-.622,2.645,2.645,0,0,1-.6-1.9,2.673,2.673,0,0,1,.593-1.9,2.225,2.225,0,0,1,1.691-.622,2.626,2.626,0,0,1,.666.078,4.733,4.733,0,0,1,.52.165,3.162,3.162,0,0,1,.466.243l-.437.777h-.1a1.459,1.459,0,0,0-.272-.194,1.614,1.614,0,0,0-.326-.136A1.434,1.434,0,0,0,105.068-15.723Zm4.373,0a.692.692,0,0,0-.534.3,1.434,1.434,0,0,0-.243.918h1.555a1.434,1.434,0,0,0-.243-.918A.692.692,0,0,0,109.441-15.723Zm.292,4.178q-2.429,0-2.429-2.527a2.721,2.721,0,0,1,.578-1.9,2.018,2.018,0,0,1,1.56-.627,2.043,2.043,0,0,1,1.56.612,2.555,2.555,0,0,1,.578,1.817v.243l-.292.292h-2.624q0,1.215,1.166,1.215a1.434,1.434,0,0,0,.423-.058,1.615,1.615,0,0,0,.326-.136,1.459,1.459,0,0,0,.272-.194h.1l.437.777a3.16,3.16,0,0,1-.466.243,3.265,3.265,0,0,1-.52.17A2.793,2.793,0,0,1,109.732-11.545Zm4.713-5.053a3.231,3.231,0,0,1,.739.078,6,6,0,0,1,.583.165,3.284,3.284,0,0,1,.525.243l-.437.777h-.1a2.018,2.018,0,0,0-.33-.194,2.252,2.252,0,0,0-.389-.136,1.963,1.963,0,0,0-.5-.058.937.937,0,0,0-.593.151.431.431,0,0,0-.185.335.379.379,0,0,0,.2.33,2.539,2.539,0,0,0,.5.233q.3.107.641.214a3.009,3.009,0,0,1,.641.282,1.668,1.668,0,0,1,.5.442,1.1,1.1,0,0,1,.2.675,1.5,1.5,0,0,1-.121.607,1.236,1.236,0,0,1-.384.481,1.9,1.9,0,0,1-.666.316,3.656,3.656,0,0,1-.967.112,4.17,4.17,0,0,1-.807-.073,4.159,4.159,0,0,1-.632-.17,3.387,3.387,0,0,1-.554-.243l.437-.777h.1a2.236,2.236,0,0,0,.35.194,2.143,2.143,0,0,0,.408.136,2.383,2.383,0,0,0,.554.058,1.2,1.2,0,0,0,.719-.16.476.476,0,0,0,.2-.384.379.379,0,0,0-.2-.33,2.538,2.538,0,0,0-.5-.233q-.3-.107-.641-.214a3.008,3.008,0,0,1-.641-.282,1.7,1.7,0,0,1-.5-.437,1.094,1.094,0,0,1-.2-.68,1.381,1.381,0,0,1,.121-.578,1.229,1.229,0,0,1,.369-.462,1.85,1.85,0,0,1,.636-.306A3.324,3.324,0,0,1,114.445-16.6Zm8.308,1.846a1.036,1.036,0,0,0-.223-.743.942.942,0,0,0-.7-.228,1.422,1.422,0,0,0-.428.058,1.645,1.645,0,0,0-.321.136,1.458,1.458,0,0,0-.272.194h-.1l-.437-.777a2.76,2.76,0,0,1,.457-.243,4.625,4.625,0,0,1,.525-.165,2.684,2.684,0,0,1,.671-.078,2.946,2.946,0,0,1,.933.136,1.925,1.925,0,0,1,.685.384,1.654,1.654,0,0,1,.423.588,1.855,1.855,0,0,1,.146.739v3.11h-.972l-.1-.583H123a1.828,1.828,0,0,1-.33.34,1.633,1.633,0,0,1-.408.238,1.474,1.474,0,0,1-.573.1,1.912,1.912,0,0,1-1.336-.423,1.4,1.4,0,0,1-.462-1.083,1.616,1.616,0,0,1,.121-.636,1.2,1.2,0,0,1,.389-.491,1.949,1.949,0,0,1,.68-.316,3.856,3.856,0,0,1,1-.112h.68Zm0,1.02h-.68a.932.932,0,0,0-.632.175.645.645,0,0,0-.194.505.55.55,0,0,0,.175.418.709.709,0,0,0,.505.165.629.629,0,0,0,.335-.092,1.388,1.388,0,0,0,.258-.2,1.77,1.77,0,0,0,.233-.292Zm4.762-1.943a.665.665,0,0,0-.355.092,1.387,1.387,0,0,0-.258.2,1.694,1.694,0,0,0-.214.292v3.45h-1.36V-16.5h.972l.1.583h.049a1.816,1.816,0,0,1,.33-.34,1.991,1.991,0,0,1,.408-.233,1.415,1.415,0,0,1,.573-.107,1.847,1.847,0,0,1,1.365.481,1.847,1.847,0,0,1,.481,1.365v3.11h-1.36v-3.11a1.031,1.031,0,0,0-.2-.7A.675.675,0,0,0,127.515-15.675Zm6.025.243a2.323,2.323,0,0,0-.2-.146,2.3,2.3,0,0,0-.228-.1.849.849,0,0,0-.3-.049.814.814,0,0,0-.369.083.771.771,0,0,0-.292.272,1.47,1.47,0,0,0-.194.505,3.851,3.851,0,0,0-.068.792,3.593,3.593,0,0,0,.068.763,1.716,1.716,0,0,0,.18.5.672.672,0,0,0,.262.267.68.68,0,0,0,.316.078.672.672,0,0,0,.35-.092,1.326,1.326,0,0,0,.262-.2,1.694,1.694,0,0,0,.214-.292Zm1.36,3.79h-.972l-.1-.583h-.049a1.829,1.829,0,0,1-.33.34,1.632,1.632,0,0,1-.408.238,1.474,1.474,0,0,1-.573.1,1.9,1.9,0,0,1-.773-.155,1.665,1.665,0,0,1-.617-.471,2.262,2.262,0,0,1-.408-.787,3.783,3.783,0,0,1-.146-1.113,3.783,3.783,0,0,1,.146-1.113,2.172,2.172,0,0,1,.418-.787,1.71,1.71,0,0,1,.646-.471,2.145,2.145,0,0,1,.831-.155,1.437,1.437,0,0,1,.394.049q.17.049.306.1a2.686,2.686,0,0,1,.272.146v-1.749l.389-.389h.972Zm6.219-3.11a1.267,1.267,0,0,0,.962-.321,1.573,1.573,0,0,0,.3-1.088,1.573,1.573,0,0,0-.3-1.088,1.267,1.267,0,0,0-.962-.321h-.583v2.818Zm-.583.875v2.235h-1.36v-6.8h1.943a2.9,2.9,0,0,1,2.007.573,2.223,2.223,0,0,1,.617,1.71,2.223,2.223,0,0,1-.617,1.71,2.9,2.9,0,0,1-2.007.573Zm6.365-1.749a.665.665,0,0,0-.355.092,1.387,1.387,0,0,0-.257.2,1.692,1.692,0,0,0-.214.292v3.4h-1.36V-16.5h.972l.1.583h.049a1.816,1.816,0,0,1,.33-.34,1.992,1.992,0,0,1,.408-.233,1.415,1.415,0,0,1,.573-.107,2.331,2.331,0,0,1,.258.015q.131.015.238.034t.233.049l-.194.972h-.1q-.107-.019-.214-.049t-.219-.034A2.078,2.078,0,0,0,146.9-15.626Zm4.373,1.555a3.851,3.851,0,0,0-.068-.792,1.623,1.623,0,0,0-.185-.505.716.716,0,0,0-.277-.272.742.742,0,0,0-.345-.083.742.742,0,0,0-.345.083.716.716,0,0,0-.277.272,1.623,1.623,0,0,0-.185.505,3.852,3.852,0,0,0-.068.792,3.852,3.852,0,0,0,.068.792,1.623,1.623,0,0,0,.185.505.716.716,0,0,0,.277.272.742.742,0,0,0,.345.083.742.742,0,0,0,.345-.083.716.716,0,0,0,.277-.272,1.623,1.623,0,0,0,.185-.505A3.851,3.851,0,0,0,151.274-14.071Zm1.36,0a2.688,2.688,0,0,1-.588,1.9,2.157,2.157,0,0,1-1.647.622,2.157,2.157,0,0,1-1.647-.622,2.688,2.688,0,0,1-.588-1.9,2.688,2.688,0,0,1,.588-1.9A2.157,2.157,0,0,1,150.4-16.6a2.157,2.157,0,0,1,1.647.622A2.688,2.688,0,0,1,152.635-14.071Zm3.887-1.36a2.319,2.319,0,0,0-.2-.146,2.3,2.3,0,0,0-.228-.1.849.849,0,0,0-.3-.049.814.814,0,0,0-.369.083.77.77,0,0,0-.292.272,1.47,1.47,0,0,0-.194.505,3.852,3.852,0,0,0-.068.792,3.594,3.594,0,0,0,.068.763,1.715,1.715,0,0,0,.18.5.672.672,0,0,0,.262.267.68.68,0,0,0,.316.078.672.672,0,0,0,.35-.092,1.326,1.326,0,0,0,.262-.2,1.693,1.693,0,0,0,.214-.292Zm1.36,3.79h-.972l-.1-.583h-.049a1.829,1.829,0,0,1-.33.34,1.632,1.632,0,0,1-.408.238,1.474,1.474,0,0,1-.573.1,1.9,1.9,0,0,1-.773-.155,1.666,1.666,0,0,1-.617-.471,2.262,2.262,0,0,1-.408-.787,3.783,3.783,0,0,1-.146-1.113,3.783,3.783,0,0,1,.146-1.113,2.171,2.171,0,0,1,.418-.787,1.71,1.71,0,0,1,.646-.471,2.145,2.145,0,0,1,.831-.155,1.437,1.437,0,0,1,.394.049q.17.049.306.1a2.686,2.686,0,0,1,.272.146v-1.749l.389-.389h.972Zm3.4-.826a.672.672,0,0,0,.35-.092,1.326,1.326,0,0,0,.262-.2,1.693,1.693,0,0,0,.214-.292V-16.5h1.36v4.859H162.5l-.1-.583h-.049a1.828,1.828,0,0,1-.33.34,1.633,1.633,0,0,1-.408.238,1.474,1.474,0,0,1-.573.1,1.847,1.847,0,0,1-1.365-.481,1.847,1.847,0,0,1-.481-1.365V-16.5h1.36v3.11a1.031,1.031,0,0,0,.2.7A.675.675,0,0,0,161.283-12.468Zm5.539-3.255a1.047,1.047,0,0,0-.423.083.756.756,0,0,0-.321.272,1.466,1.466,0,0,0-.2.505,3.6,3.6,0,0,0-.073.792,3.6,3.6,0,0,0,.073.792,1.351,1.351,0,0,0,.214.505.794.794,0,0,0,.35.272,1.3,1.3,0,0,0,.481.083,1.434,1.434,0,0,0,.423-.058,1.614,1.614,0,0,0,.326-.136,1.459,1.459,0,0,0,.272-.194h.1l.437.777a3.16,3.16,0,0,1-.466.243,3.265,3.265,0,0,1-.52.17,2.793,2.793,0,0,1-.666.073,2.366,2.366,0,0,1-1.778-.622,2.645,2.645,0,0,1-.6-1.9,2.673,2.673,0,0,1,.593-1.9,2.225,2.225,0,0,1,1.691-.622,2.626,2.626,0,0,1,.666.078,4.735,4.735,0,0,1,.52.165,3.161,3.161,0,0,1,.466.243l-.437.777h-.1a1.46,1.46,0,0,0-.272-.194,1.614,1.614,0,0,0-.326-.136A1.434,1.434,0,0,0,166.822-15.723Zm4.519,3.3a.829.829,0,0,0,.311-.058,1.426,1.426,0,0,0,.262-.136,1.866,1.866,0,0,0,.253-.194h.1l.437.777a3.161,3.161,0,0,1-.437.243,2.878,2.878,0,0,1-.466.17,2.06,2.06,0,0,1-.554.073,2.2,2.2,0,0,1-.753-.121,1.632,1.632,0,0,1-.568-.34,1.444,1.444,0,0,1-.355-.52,1.778,1.778,0,0,1-.121-.67v-2.429h-.632v-.583l1.458-1.458h.534V-16.5h1.117v.875h-1.117V-13.2a.915.915,0,0,0,.155.593A.478.478,0,0,0,171.34-12.419Zm3.838-4.178a3.231,3.231,0,0,1,.739.078,5.994,5.994,0,0,1,.583.165,3.284,3.284,0,0,1,.525.243l-.437.777h-.1a2.018,2.018,0,0,0-.33-.194,2.253,2.253,0,0,0-.389-.136,1.963,1.963,0,0,0-.5-.058.937.937,0,0,0-.593.151.431.431,0,0,0-.185.335.379.379,0,0,0,.2.33,2.537,2.537,0,0,0,.5.233q.3.107.641.214a3.008,3.008,0,0,1,.641.282,1.668,1.668,0,0,1,.5.442,1.1,1.1,0,0,1,.2.675,1.5,1.5,0,0,1-.121.607,1.236,1.236,0,0,1-.384.481,1.9,1.9,0,0,1-.666.316,3.656,3.656,0,0,1-.967.112,4.17,4.17,0,0,1-.807-.073,4.158,4.158,0,0,1-.632-.17,3.387,3.387,0,0,1-.554-.243l.437-.777h.1a2.236,2.236,0,0,0,.35.194,2.144,2.144,0,0,0,.408.136,2.383,2.383,0,0,0,.554.058,1.2,1.2,0,0,0,.719-.16.476.476,0,0,0,.2-.384.379.379,0,0,0-.2-.33,2.538,2.538,0,0,0-.5-.233q-.3-.107-.641-.214a3.008,3.008,0,0,1-.641-.282,1.7,1.7,0,0,1-.5-.437,1.094,1.094,0,0,1-.2-.68,1.381,1.381,0,0,1,.121-.578,1.229,1.229,0,0,1,.369-.462,1.85,1.85,0,0,1,.636-.306A3.324,3.324,0,0,1,175.179-16.6Z" transform="translate(1039.395 230.31)" fill="#191919"/>
    </g>
  </g>
</svg>
